# xmcd CD database file
#
# Track frame offsets:
#	150
#	13154
#	26729
#	38973
#	55754
#	72042
#	86799
#	110587
#	121823
#	135519
#	147767
#	161160
#
# Disc length: 2346 seconds
#
# Revision: 0
# Processed by: cddbd v1.5.1PL0 Copyright (c) Steve Scherf et al.
# Submitted via: CDex 1.40Release
#
DISCID=a309280c
DTITLE=B.B. King - 12 grandes éxitos en Versión Original
DYEAR=1999
DGENRE=Blues
TTITLE0=You're on the top
TTITLE1=Questionaire Blues
TTITLE2=Low Rider
TTITLE3=The Other Night Blues
TTITLE4=It's my own Fault
TTITLE5=Mr. Pawnbroker
TTITLE6=You've done lost your good Thing
TTITLE7=Catfish Blues
TTITLE8=Please Love Me
TTITLE9=I'll survive
TTITLE10=Jumpin' with B.B.
TTITLE11=Past Day
EXTD=YEAR: 1999 ID3G: 0
EXTT0=
EXTT1=
EXTT2=
EXTT3=
EXTT4=
EXTT5=
EXTT6=
EXTT7=
EXTT8=
EXTT9=
EXTT10=
EXTT11=
PLAYORDER=
